<svg width="512" height="512" viewBox="0 0 512 512" fill="none" xmlns="http://www.w3.org/2000/svg">
  <!-- Background Circle with Gradient -->
  <circle cx="256" cy="256" r="256" fill="url(#gradient)"/>
  
  <!-- Diamond Shape -->
  <path d="M256 80L320 160H192L256 80Z" fill="white" opacity="0.9"/>
  <path d="M192 160L256 320L320 160H192Z" fill="white" opacity="0.8"/>
  <path d="M256 320L192 160L140 200L256 400L372 200L320 160L256 320Z" fill="white" opacity="0.7"/>
  
  <!-- Sparkle Effects -->
  <circle cx="180" cy="120" r="4" fill="white" opacity="0.8"/>
  <circle cx="340" cy="140" r="3" fill="white" opacity="0.9"/>
  <circle cx="160" cy="200" r="2" fill="white" opacity="0.7"/>
  <circle cx="360" cy="220" r="3" fill="white" opacity="0.8"/>
  <circle cx="200" cy="380" r="2" fill="white" opacity="0.6"/>
  <circle cx="320" cy="390" r="3" fill="white" opacity="0.7"/>
  
  <!-- AI Circuit Pattern -->
  <path d="M100 100L120 120M120 120L140 100M120 120L120 140" stroke="white" stroke-width="2" opacity="0.4"/>
  <path d="M380 380L400 400M400 400L420 380M400 400L400 420" stroke="white" stroke-width="2" opacity="0.4"/>
  <circle cx="120" cy="120" r="3" fill="white" opacity="0.5"/>
  <circle cx="400" cy="400" r="3" fill="white" opacity="0.5"/>
  
  <!-- Gradient Definition -->
  <defs>
    <linearGradient id="gradient" x1="0%" y1="0%" x2="100%" y2="100%">
      <stop offset="0%" style="stop-color:#7367f0;stop-opacity:1" />
      <stop offset="50%" style="stop-color:#6c5ce7;stop-opacity:1" />
      <stop offset="100%" style="stop-color:#5a4fcf;stop-opacity:1" />
    </linearGradient>
  </defs>
</svg>
